<?xml version="1.0" encoding="utf-8"?>
<!-- Generator: Adobe Illustrator 23.0.5, SVG Export Plug-In . SVG Version: 6.00 Build 0)  -->
<svg version="1.1" id="Layer_1" xmlns="http://www.w3.org/2000/svg" xmlns:xlink="http://www.w3.org/1999/xlink" x="0px" y="0px"
	 viewBox="0 0 108.7 36" style="enable-background:new 0 0 108.7 36;" xml:space="preserve">
<style type="text/css">
	.st0{fill:#1863AA;}
	.st1{fill:#4795D1;}
</style>
<g>
	<g>
		<path class="st0" d="M3.2,1.8c0,0.5-0.1,0.8-0.4,1.1C2.6,3.1,2.2,3.2,1.7,3.2l-0.4,0l0,1.5l-0.8,0l0-4.3l1.3,0
			c0.5,0,0.8,0.1,1.1,0.3C3.1,1,3.2,1.4,3.2,1.8z M1.3,2.5l0.3,0c0.3,0,0.5-0.1,0.6-0.2c0.1-0.1,0.2-0.3,0.2-0.5
			c0-0.2-0.1-0.4-0.2-0.5C2.1,1.3,1.9,1.2,1.7,1.2l-0.4,0L1.3,2.5z"/>
		<path class="st0" d="M7.9,2.6c0,0.7-0.2,1.3-0.5,1.6C7.1,4.6,6.6,4.8,6,4.8C5.4,4.8,5,4.6,4.6,4.2C4.3,3.9,4.1,3.3,4.1,2.6
			c0-0.7,0.2-1.3,0.5-1.6C4.9,0.6,5.4,0.4,6,0.4c0.6,0,1.1,0.2,1.4,0.6C7.8,1.3,7.9,1.9,7.9,2.6z M5,2.6c0,0.5,0.1,0.8,0.3,1.1
			C5.4,3.9,5.7,4,6,4c0.7,0,1-0.5,1-1.5c0-1-0.3-1.4-1-1.4c-0.3,0-0.6,0.1-0.8,0.4C5.1,1.8,5,2.1,5,2.6z"/>
		<path class="st0" d="M13,4.7l-1,0l-0.5-2.3c0-0.1-0.1-0.2-0.1-0.5c0-0.3-0.1-0.4-0.1-0.5c0,0.1,0,0.3-0.1,0.5
			c0,0.2-0.1,0.4-0.1,0.5l-0.5,2.3l-1,0l-1-4.3l0.8,0l0.5,2.3c0.1,0.4,0.2,0.8,0.2,1.1c0-0.1,0-0.3,0.1-0.5s0.1-0.4,0.1-0.5l0.6-2.4
			l0.8,0l0.6,2.4c0,0.1,0.1,0.3,0.1,0.5c0,0.2,0.1,0.4,0.1,0.6c0-0.2,0-0.3,0.1-0.6c0-0.2,0.1-0.4,0.1-0.6l0.5-2.3l0.8,0L13,4.7z"/>
		<path class="st0" d="M17.1,4.7l-2.3,0l0-4.3l2.3,0l0,0.7l-1.4,0l0,0.9l1.3,0l0,0.7l-1.3,0l0,1.1l1.4,0L17.1,4.7z"/>
		<path class="st0" d="M19.1,3l0,1.6l-0.8,0l0-4.3l1.2,0c0.5,0,0.9,0.1,1.2,0.3c0.3,0.2,0.4,0.5,0.4,1c0,0.3-0.1,0.5-0.2,0.7
			c-0.1,0.2-0.3,0.4-0.5,0.5c0.6,1,1,1.6,1.2,1.9l-0.9,0l-1-1.6L19.1,3z M19.1,2.3l0.3,0c0.3,0,0.5,0,0.6-0.1
			c0.1-0.1,0.2-0.2,0.2-0.5c0-0.2-0.1-0.3-0.2-0.4c-0.1-0.1-0.3-0.1-0.6-0.1l-0.3,0L19.1,2.3z"/>
		<path class="st0" d="M24.5,4.7l-2.3,0l0-4.3l2.3,0l0,0.7l-1.4,0l0,0.9l1.3,0l0,0.7l-1.3,0l0,1.1l1.4,0L24.5,4.7z"/>
		<path class="st0" d="M29,2.5c0,0.7-0.2,1.2-0.6,1.6c-0.4,0.4-0.9,0.6-1.6,0.6l-1.1,0l0-4.3l1.2,0c0.6,0,1.2,0.2,1.5,0.5
			C28.8,1.3,29,1.8,29,2.5z M28.1,2.5c0-0.9-0.4-1.4-1.1-1.4l-0.4,0l0,2.8l0.4,0C27.7,3.9,28.1,3.4,28.1,2.5z"/>
		<path class="st0" d="M32.9,4.7c-0.2,0-0.3,0-0.5-0.1c-0.1-0.1-0.2-0.2-0.3-0.4l0,0l-0.2,0.5l-0.3,0l0.9-4.6l0.5,0
			c-0.1,0.5-0.2,0.8-0.2,1.1c0,0.3-0.1,0.5-0.2,0.9l0,0c0.2-0.2,0.3-0.4,0.5-0.5c0.2-0.1,0.3-0.2,0.5-0.2c0.3,0,0.5,0.1,0.6,0.3
			c0.1,0.2,0.2,0.5,0.2,0.8c0,0.4-0.1,0.8-0.2,1.1c-0.1,0.3-0.3,0.6-0.5,0.8C33.4,4.6,33.2,4.7,32.9,4.7z M33.4,1.8
			c-0.2,0-0.4,0.1-0.5,0.3c-0.2,0.2-0.3,0.4-0.4,0.7c-0.1,0.3-0.2,0.6-0.2,0.9c0,0.2,0.1,0.4,0.2,0.5c0.1,0.1,0.2,0.2,0.4,0.2
			c0.2,0,0.3-0.1,0.5-0.2c0.2-0.2,0.3-0.4,0.4-0.7c0.1-0.3,0.1-0.6,0.1-0.9C33.9,2,33.7,1.8,33.4,1.8z"/>
		<path class="st0" d="M35.2,1.4l0.5,0L35.9,3c0,0.1,0,0.3,0.1,0.6c0,0.3,0,0.5,0,0.6l0,0c0.1-0.2,0.1-0.4,0.2-0.6
			c0.1-0.2,0.2-0.4,0.2-0.5l0.9-1.8l0.5,0l-1.9,3.8c-0.2,0.3-0.3,0.6-0.5,0.7c-0.2,0.1-0.4,0.2-0.6,0.2c-0.1,0-0.3,0-0.4-0.1l0-0.4
			c0.1,0,0.2,0.1,0.4,0.1c0.1,0,0.3-0.1,0.4-0.1c0.1-0.1,0.2-0.2,0.3-0.4l0.2-0.4L35.2,1.4z"/>
	</g>
	<g>
		<path class="st0" d="M26.9,19.8c2.1-1,3.2-3,3.2-5.1c0-0.6-0.1-1.2-0.3-1.7c-0.2-0.6-0.5-1.1-0.9-1.5c-0.4-0.5-0.8-0.8-1.3-1.1
			c-0.6-0.4-1.2-0.6-2-0.7c-0.7-0.1-1.6-0.2-2.6-0.2h-6.8c-0.9,0-1.6,0.2-2,0.6c-0.4,0.4-0.6,1-0.6,1.9c0,0,0,0,0,0.1v0c0,0,0,0,0,0
			v7.7c0,0,0,0,0,0v2.7c0,1.8-0.3,3.2-1,4c-0.7,0.9-1.9,1.3-3.5,1.3c-1.2,0-2.2-0.2-2.8-0.7c-0.7-0.4-1.1-1.1-1.4-1.8
			c-0.3-0.8-0.4-1.8-0.4-3V12c0-0.9-0.2-1.5-0.6-1.9C3.3,9.6,2.8,9.4,2.1,9.4c-0.6,0-1.1,0.2-1.5,0.6C0.2,10.5,0,11.1,0,12v10.1
			c0,1.6,0.2,3,0.5,4.1c0.3,1.1,0.9,2.1,1.6,2.8c0.7,0.7,1.7,1.3,2.9,1.6c1.2,0.4,2.6,0.5,4.2,0.5c1.4,0,2.6-0.2,3.6-0.5
			c1-0.3,1.9-0.8,2.7-1.6c0.9-0.8,1.5-1.8,1.8-2.9c0.3-1.1,0.5-2.4,0.5-4.1c0,0,0,0,0,0v0c0,0,0,0,0,0v-0.5h4.5
			c1.5,0,2.6,0.2,3.4,0.7c0.7,0.5,1.1,1.5,1.1,2.5c0,2.1-1.4,3.1-4.3,3.1h-2.8c-0.2,1.2-0.7,2.3-1.5,3.2h4.4c1.1,0,2.1-0.1,2.9-0.2
			c0.8-0.1,1.6-0.3,2.2-0.6c1-0.5,1.8-1.1,2.4-2.1c0.6-0.9,0.9-2,0.9-3.2C31,22.6,29.6,20.7,26.9,19.8z M25.5,17.1
			c-0.3,0.6-0.8,1-1.3,1.2c-0.6,0.2-1.4,0.3-2.5,0.3h-3.9v-5.9h3.5c1.6,0,2.7,0.2,3.5,0.5c0.8,0.4,1.1,1.1,1.1,2.1
			C25.8,15.8,25.7,16.7,25.5,17.1z"/>
		<path class="st0" d="M33,28.6V17.2c0-0.9,0.2-1.5,0.6-1.9c0.4-0.4,0.9-0.6,1.5-0.6c0.6,0,1.2,0.2,1.6,0.6c0.4,0.4,0.6,1.1,0.6,2
			v11.4c0,0.9-0.2,1.5-0.6,2c-0.4,0.4-0.9,0.6-1.6,0.6c-0.6,0-1.1-0.2-1.5-0.7C33.2,30.1,33,29.4,33,28.6"/>
		<path class="st1" d="M55.9,32.6v-9.6l0-0.1c0.1-2.3-0.8-4.3-2.5-5.9c-1.6-1.6-3.5-2.4-5.7-2.4c-0.1,0-0.2,0-0.3,0
			c-2.2,0.1-4.1,0.9-5.6,2.5c-1.5,1.6-2.3,3.5-2.3,5.8c0,2.3,0.8,4.3,2.5,6c1.6,1.6,3.5,2.4,5.7,2.4c0.1,0,0.2,0,0.3,0
			c1.8-0.1,3.3-0.6,4.7-1.7v3.1v1.3c0,0.7,0.2,1.2,0.5,1.5c0.3,0.3,0.7,0.5,1.2,0.5c0.5,0,0.9-0.2,1.2-0.5c0.3-0.3,0.5-0.8,0.5-1.5
			L55.9,32.6L55.9,32.6z M51.1,26.5c-0.9,1-2,1.4-3.3,1.4c-1.4,0-2.5-0.5-3.5-1.4c-1-1-1.5-2.1-1.5-3.5c0-1.4,0.4-2.5,1.4-3.6
			c0.9-1,2-1.5,3.4-1.6c0.1,0,0.2,0,0.3,0c1.3,0,2.4,0.5,3.3,1.5c1,1.1,1.5,2.3,1.5,3.7C52.6,24.4,52.1,25.5,51.1,26.5"/>
		<path class="st1" d="M71.7,15.1c-0.3-0.3-0.7-0.5-1.2-0.5c-0.5,0-0.9,0.2-1.2,0.5c-0.3,0.3-0.5,0.8-0.5,1.5V18h0v6.1
			c0,1.1-0.4,1.9-1.1,2.7c-0.8,0.8-1.7,1.1-2.7,1.1c-1,0-1.9-0.4-2.7-1.1c-0.8-0.8-1.1-1.6-1.1-2.7V18h0v-1.3c0-0.7-0.2-1.2-0.5-1.5
			c-0.3-0.3-0.7-0.5-1.2-0.5c-0.5,0-0.9,0.2-1.2,0.5c-0.3,0.3-0.5,0.8-0.5,1.5V17V18v5.9c0,2.1,0.7,3.8,2,5.2
			c1.3,1.4,3.1,2.1,5.1,2.1c2,0,3.8-0.7,5.1-2.1c1.3-1.4,2-3.1,2-5.2V18v-0.7v-0.6C72.1,16,72,15.5,71.7,15.1"/>
		<path class="st1" d="M88.4,16.9c-1.6-1.6-3.4-2.4-5.6-2.4c-0.1,0-0.2,0-0.3,0c-1.8,0.1-3.3,0.6-4.7,1.7V13h0v-1.6
			c0-0.7-0.2-1.2-0.5-1.5c-0.3-0.3-0.7-0.5-1.2-0.5c-0.5,0-0.9,0.2-1.2,0.5c-0.3,0.3-0.5,0.8-0.5,1.5V13h0v9.7l0,0.1
			c-0.1,2.3,0.8,4.3,2.5,6c1.6,1.6,3.5,2.4,5.7,2.4c0.1,0,0.2,0,0.3,0c2.2-0.1,4.1-0.9,5.6-2.5c1.5-1.6,2.3-3.5,2.3-5.8
			C90.9,20.6,90.1,18.5,88.4,16.9 M86.2,26.3c-0.9,1-2,1.5-3.4,1.6c-0.1,0-0.2,0-0.2,0h0c-1.3,0-2.4-0.5-3.4-1.5
			c-1-1.1-1.5-2.3-1.5-3.7c0-1.4,0.5-2.5,1.5-3.5c0.9-1,2-1.4,3.3-1.4c1.4,0,2.5,0.5,3.5,1.5c1,1,1.5,2.1,1.5,3.5
			C87.6,24.1,87.2,25.3,86.2,26.3"/>
		<path class="st0" d="M37.3,11.5c0,1.2-1,2.1-2.1,2.1c-1.2,0-2.1-1-2.1-2.1c0-1.2,1-2.1,2.1-2.1C36.4,9.4,37.3,10.4,37.3,11.5"/>
		<path class="st1" d="M102.5,27.8h-2c-1.2,0-2.3-0.4-3.2-1.2c-0.8-0.7-1.3-1.5-1.5-2.4h11.5c1,0,1.3-0.7,1.4-1.2v-0.5
			c0-2-0.8-3.7-2.2-5.3c-1.5-1.6-3.4-2.5-5.5-2.6c-2.3-0.1-4.4,0.7-6.1,2.4c-1.7,1.7-2.5,3.7-2.5,6.1c0,2.2,0.9,4.2,2.5,5.8
			c1.6,1.5,3.4,2.3,5.4,2.4v0h2.2c0.7,0,1.2-0.2,1.5-0.5c0.3-0.3,0.5-0.7,0.5-1.2c0-0.5-0.2-0.9-0.5-1.2
			C103.6,28,103.1,27.8,102.5,27.8 M97.4,19c0.9-0.7,1.9-1.1,3.1-1.1l0.1,0c1.2,0,2.3,0.4,3.1,1.1c0.7,0.6,1.2,1.3,1.5,2.1h-9.3
			C96.2,20.2,96.7,19.5,97.4,19"/>
	</g>
</g>
</svg>
